<svg width="26" height="26" viewBox="0 0 26 26" fill="none" xmlns="http://www.w3.org/2000/svg">
<path fill-rule="evenodd" clip-rule="evenodd" d="M2 0C0.895431 0 0 0.89543 0 2V24C0 25.1046 0.89543 26 2 26H24C25.1046 26 26 25.1046 26 24V2C26 0.895431 25.1046 0 24 0H2ZM18.0308 14.001H20.4638L20.7948 10.967H18.0308L18.0358 9.26403C18.0358 8.45403 18.1118 8.02103 19.2738 8.02103H21.0308V4.99902H18.0058C15.0208 4.99902 13.9688 6.50303 13.9678 9.03603V10.968H12.3918V14.001H13.9678V23.005H18.0308V14.001Z" fill="white"/>
</svg>
