<svg width="27" height="27" viewBox="0 0 27 27" fill="none" xmlns="http://www.w3.org/2000/svg">
<path fill-rule="evenodd" clip-rule="evenodd" d="M2 0C0.895431 0 0 0.895429 0 2V24.389C0 25.4936 0.895429 26.389 2 26.389H24.389C25.4936 26.389 26.389 25.4936 26.389 24.389V2C26.389 0.895431 25.4936 0 24.389 0H2ZM18.3006 14.2105H20.77L21.1059 11.1311H18.3006L18.3056 9.4026C18.3056 8.58048 18.3828 8.141 19.5622 8.141H21.3455V5.07378H18.2752C15.2455 5.07378 14.1778 6.60028 14.1768 9.17118V11.1321H12.5772V14.2105H14.1768V23.3492H18.3006V14.2105Z" fill="#323232" fill-opacity="0.4"/>
</svg>
