<svg width="24" height="24" viewBox="0 0 24 24" fill="none" xmlns="http://www.w3.org/2000/svg">
<path opacity="0.6" fill-rule="evenodd" clip-rule="evenodd" d="M18.2415 9.6849C18.2415 14.4106 14.4106 18.2415 9.6849 18.2415C4.95924 18.2415 1.12834 14.4106 1.12834 9.6849C1.12834 4.95924 4.95924 1.12834 9.6849 1.12834C14.4106 1.12834 18.2415 4.95924 18.2415 9.6849ZM16.1227 16.9205C14.4115 18.4441 12.1563 19.3698 9.6849 19.3698C4.33608 19.3698 0 15.0337 0 9.6849C0 4.33608 4.33608 0 9.6849 0C15.0337 0 19.3698 4.33608 19.3698 9.6849C19.3698 12.1563 18.4441 14.4115 16.9205 16.1227L24 23.2021L23.2022 24L16.1227 16.9205Z" fill="#323232"/>
</svg>
