<svg width="22" height="22" viewBox="0 0 22 22" fill="none" xmlns="http://www.w3.org/2000/svg">
<path fill-rule="evenodd" clip-rule="evenodd" d="M1.12498 0H0.125406V4.33156H0.124878V14.1607H16.4513L21.4492 4.33156H1.12498V0ZM3.79 18.992C3.79 19.7281 3.19329 20.3248 2.45723 20.3248C1.72116 20.3248 1.12446 19.7281 1.12446 18.992C1.12446 18.256 1.72116 17.6593 2.45723 17.6593C3.19329 17.6593 3.79 18.256 3.79 18.992ZM4.78957 18.992C4.78957 20.2802 3.74535 21.3244 2.45723 21.3244C1.16911 21.3244 0.124878 20.2802 0.124878 18.992C0.124878 17.7039 1.16911 16.6597 2.45723 16.6597C3.74535 16.6597 4.78957 17.7039 4.78957 18.992ZM14.7854 20.3248C15.5214 20.3248 16.1181 19.7281 16.1181 18.992C16.1181 18.256 15.5214 17.6593 14.7854 17.6593C14.0493 17.6593 13.4526 18.256 13.4526 18.992C13.4526 19.7281 14.0493 20.3248 14.7854 20.3248ZM14.7854 21.3244C16.0735 21.3244 17.1177 20.2802 17.1177 18.992C17.1177 17.7039 16.0735 16.6597 14.7854 16.6597C13.4972 16.6597 12.453 17.7039 12.453 18.992C12.453 20.2802 13.4972 21.3244 14.7854 21.3244Z" fill="#323232"/>
</svg>
