<svg width="341" height="124" viewBox="0 0 341 124" fill="none" xmlns="http://www.w3.org/2000/svg">
<g clip-path="url(#clip0)">
<path d="M185.139 102.094H190.998C191.7 102.079 192.401 102.124 193.095 102.229C193.526 102.307 193.94 102.453 194.324 102.662C195.014 103.021 195.575 103.586 195.927 104.279C196.307 105.072 196.492 105.944 196.467 106.822C196.479 107.575 196.326 108.32 196.017 109.007C195.725 109.642 195.276 110.192 194.714 110.608C194.305 110.901 193.841 111.109 193.35 111.221C192.64 111.366 191.917 111.431 191.193 111.416H187.701V117.401H185.139V102.094ZM187.701 104.308V109.156H191.013C191.795 109.226 192.578 109.025 193.23 108.588C193.469 108.348 193.651 108.059 193.765 107.741C193.879 107.423 193.922 107.084 193.89 106.747C193.92 106.409 193.876 106.068 193.763 105.748C193.649 105.428 193.467 105.136 193.23 104.892C192.633 104.445 191.89 104.237 191.148 104.308H187.686H187.701Z" fill="black"/>
<path d="M205.667 101.69C206.67 101.64 207.671 101.808 208.603 102.183C209.534 102.558 210.373 103.13 211.061 103.86C212.34 105.571 213.031 107.649 213.031 109.785C213.031 111.921 212.34 113.999 211.061 115.71C209.606 117.098 207.671 117.872 205.659 117.872C203.647 117.872 201.713 117.098 200.258 115.71C198.977 113.997 198.285 111.916 198.285 109.777C198.285 107.639 198.977 105.558 200.258 103.845C200.95 103.116 201.792 102.546 202.725 102.174C203.659 101.802 204.663 101.637 205.667 101.69ZM205.667 103.904C205.006 103.867 204.346 103.982 203.738 104.242C203.13 104.501 202.59 104.898 202.161 105.401C201.338 106.691 200.901 108.188 200.901 109.718C200.901 111.247 201.338 112.745 202.161 114.035C202.603 114.525 203.144 114.917 203.748 115.185C204.352 115.454 205.006 115.593 205.667 115.593C206.328 115.593 206.982 115.454 207.586 115.185C208.19 114.917 208.73 114.525 209.173 114.035C209.994 112.744 210.43 111.247 210.43 109.718C210.43 108.189 209.994 106.691 209.173 105.401C208.744 104.899 208.204 104.504 207.595 104.247C206.987 103.99 206.326 103.878 205.667 103.919V103.904Z" fill="black"/>
<path d="M226.18 106.568H223.752C223.744 106.175 223.652 105.789 223.481 105.435C223.31 105.082 223.066 104.769 222.763 104.518C222.073 103.993 221.218 103.728 220.351 103.77C219.621 103.736 218.901 103.941 218.298 104.353C218.061 104.509 217.865 104.719 217.726 104.967C217.588 105.214 217.511 105.491 217.502 105.774C217.493 106.057 217.553 106.338 217.676 106.594C217.799 106.849 217.981 107.071 218.208 107.241C219.128 107.802 220.144 108.187 221.205 108.378C222.826 108.643 224.365 109.278 225.7 110.234C226.058 110.603 226.334 111.042 226.512 111.524C226.69 112.006 226.766 112.519 226.734 113.032C226.755 113.699 226.62 114.361 226.339 114.967C226.058 115.572 225.639 116.103 225.116 116.518C223.87 117.448 222.338 117.914 220.785 117.835C219.169 117.944 217.568 117.454 216.29 116.459C215.742 115.955 215.306 115.341 215.012 114.658C214.718 113.975 214.571 113.237 214.582 112.493H216.905C216.915 112.938 217.021 113.375 217.215 113.775C217.409 114.175 217.686 114.529 218.028 114.813C218.824 115.398 219.799 115.689 220.785 115.636C221.555 115.67 222.313 115.449 222.943 115.007C223.191 114.841 223.396 114.619 223.541 114.359C223.687 114.099 223.77 113.808 223.782 113.511C223.767 113.222 223.685 112.94 223.542 112.688C223.392 112.39 223.189 112.121 222.943 111.895C222.13 111.353 221.211 110.991 220.246 110.832L219.572 110.668C218.234 110.404 216.983 109.813 215.931 108.947C215.567 108.569 215.285 108.12 215.102 107.628C214.919 107.137 214.839 106.613 214.867 106.089C214.848 105.486 214.974 104.887 215.235 104.343C215.496 103.799 215.883 103.325 216.365 102.962C217.575 102.11 219.037 101.688 220.516 101.765C221.972 101.688 223.404 102.158 224.531 103.081C225.048 103.504 225.464 104.036 225.749 104.639C226.035 105.242 226.181 105.901 226.18 106.568Z" fill="black"/>
<path d="M227.753 102.094H239.74V104.338H235.02V117.446H232.473V104.338H227.723V102.094H227.753Z" fill="black"/>
<path d="M247.546 102.094H253.54C254.475 102.024 255.415 102.159 256.292 102.49C257.17 102.82 257.964 103.339 258.619 104.009C259.865 105.643 260.467 107.677 260.313 109.725C260.451 111.803 259.786 113.854 258.455 115.456C257.757 116.15 256.919 116.688 255.996 117.034C255.074 117.38 254.088 117.525 253.105 117.461H247.591V102.094H247.546ZM250.064 104.278V115.187H253.21C253.84 115.239 254.473 115.144 255.058 114.907C255.644 114.671 256.166 114.3 256.582 113.825C257.398 112.571 257.778 111.082 257.66 109.59C257.761 108.185 257.38 106.787 256.582 105.625C256.196 105.166 255.707 104.803 255.156 104.567C254.604 104.33 254.004 104.226 253.405 104.263H250.094L250.064 104.278Z" fill="black"/>
<path d="M262.425 102.094H269.917C270.498 102.06 271.08 102.144 271.628 102.339C272.177 102.534 272.68 102.838 273.109 103.231C273.739 103.959 274.132 104.862 274.237 105.819C274.341 106.775 274.151 107.741 273.693 108.588C273.314 109.203 272.739 109.672 272.06 109.92C272.609 110.069 273.087 110.408 273.408 110.877C273.738 111.537 273.902 112.266 273.888 113.002L274.023 115.202C273.981 115.524 274.018 115.851 274.13 116.156C274.242 116.46 274.427 116.734 274.667 116.952V117.401H271.745C271.625 117.176 271.54 116.934 271.49 116.683C271.414 116.253 271.369 115.818 271.356 115.381L271.266 113.541C271.302 112.83 271.085 112.13 270.651 111.566C270.122 111.185 269.472 111.009 268.823 111.072H264.958V117.386H262.425V102.094ZM264.943 104.249V108.977H268.614C269.424 109.046 270.235 108.846 270.921 108.408C271.171 108.178 271.364 107.894 271.486 107.577C271.608 107.261 271.656 106.921 271.625 106.583C271.654 106.253 271.607 105.921 271.487 105.613C271.368 105.304 271.179 105.027 270.936 104.802C270.263 104.374 269.468 104.18 268.673 104.249H264.943Z" fill="black"/>
<path d="M277.589 102.094H280.151V117.446H277.589V102.094Z" fill="black"/>
<path d="M282.279 102.094H285.036L288.902 114.349L292.782 102.094H295.509L290.19 117.446H287.628L282.279 102.094Z" fill="black"/>
<path d="M297.098 102.094H308.126V104.338H299.615V108.348H307.466V110.488H299.615V115.127H308.41V117.431H297.113V102.094H297.098Z" fill="black"/>
<path d="M310.898 102.094H318.39C318.971 102.06 319.553 102.144 320.101 102.339C320.649 102.534 321.152 102.838 321.581 103.231C322.211 103.959 322.605 104.862 322.709 105.819C322.813 106.775 322.624 107.741 322.165 108.588C321.786 109.202 321.211 109.671 320.532 109.92C321.082 110.068 321.56 110.407 321.881 110.877C322.213 111.536 322.377 112.265 322.36 113.002L322.495 115.202C322.452 115.522 322.486 115.849 322.596 116.154C322.705 116.458 322.887 116.732 323.124 116.952V117.401H320.262C320.143 117.176 320.057 116.934 320.008 116.683C319.929 116.253 319.884 115.818 319.873 115.381L319.783 113.541C319.828 112.829 319.609 112.126 319.169 111.566C318.64 111.185 317.99 111.009 317.341 111.072H313.475V117.386H310.943V102.094H310.898ZM313.415 104.249V108.977H317.086C317.897 109.045 318.707 108.845 319.393 108.408C319.643 108.178 319.836 107.894 319.958 107.577C320.08 107.261 320.128 106.921 320.098 106.583C320.126 106.253 320.079 105.921 319.96 105.613C319.84 105.304 319.652 105.027 319.408 104.802C318.736 104.374 317.94 104.18 317.146 104.249H313.415Z" fill="black"/>
<path d="M336.535 106.568H334.107C334.099 106.175 334.007 105.789 333.836 105.435C333.666 105.082 333.421 104.769 333.119 104.518C332.428 103.993 331.573 103.728 330.706 103.77C329.977 103.736 329.256 103.941 328.653 104.353C328.416 104.509 328.22 104.719 328.082 104.966C327.943 105.214 327.866 105.491 327.857 105.774C327.848 106.057 327.908 106.338 328.031 106.594C328.154 106.849 328.336 107.071 328.563 107.241C329.484 107.801 330.5 108.186 331.56 108.378C333.182 108.643 334.72 109.278 336.055 110.234C336.412 110.603 336.688 111.043 336.866 111.525C337.044 112.006 337.12 112.52 337.089 113.032C337.11 113.699 336.975 114.361 336.694 114.967C336.413 115.572 335.994 116.103 335.471 116.518C334.225 117.448 332.694 117.914 331.141 117.835C329.524 117.945 327.923 117.455 326.646 116.458C326.072 115.97 325.609 115.365 325.289 114.684C324.968 114.003 324.798 113.261 324.788 112.508H327.275C327.286 112.953 327.391 113.389 327.585 113.789C327.779 114.19 328.056 114.543 328.399 114.828C329.194 115.413 330.169 115.704 331.156 115.651C331.925 115.685 332.684 115.464 333.313 115.022C333.704 114.778 333.984 114.392 334.096 113.945C334.207 113.499 334.142 113.027 333.913 112.628C333.762 112.33 333.559 112.062 333.313 111.835C332.5 111.293 331.581 110.931 330.616 110.772L329.942 110.608C328.604 110.345 327.353 109.754 326.301 108.887C325.936 108.509 325.654 108.061 325.471 107.569C325.288 107.077 325.208 106.553 325.237 106.029C325.218 105.426 325.344 104.828 325.605 104.283C325.866 103.739 326.253 103.265 326.735 102.902C327.946 102.05 329.407 101.628 330.886 101.705C332.342 101.628 333.774 102.098 334.902 103.022C335.424 103.452 335.842 103.994 336.124 104.608C336.407 105.222 336.547 105.892 336.535 106.568Z" fill="black"/>
<path d="M156.355 89.4799H147.8V124H156.355V89.4799Z" fill="black"/>
<path d="M0.899017 15.2476H70.1539V33.4278H46.9141V88.8814H24.1388V33.4278H0.899017V15.2476Z" fill="white"/>
<path d="M47.8131 89.7792H23.2398V34.3256H0V14.3497H71.0529V34.3256H47.8131V89.7792ZM25.0228 87.9986H46.0001V32.53H69.2399V16.0705H1.81302V32.53H25.0528V87.9836L25.0228 87.9986Z" fill="black"/>
<path d="M81.3767 15.2476H104.212V88.8814H81.3767V15.2476Z" fill="white"/>
<path d="M105.111 89.7792H80.5526V14.3497H105.186V89.7792H105.111ZM82.2757 87.9986H103.253V16.1752H82.2757V87.9986Z" fill="black"/>
<path d="M234.645 76.7313H208.783L205.187 88.8814H181.918L209.638 15.2476H234.496L262.201 88.8814H238.346L234.645 76.7313ZM229.926 60.8105L221.789 34.3406L213.743 60.8105H229.941H229.926Z" fill="white"/>
<path d="M263.489 89.7792H237.672L233.986 77.6291H209.413L205.817 89.7792H180.629L209.023 14.3497H235.11L263.489 89.7792ZM239.006 87.9986H260.912L233.941 16.1752H210.252L183.281 87.9986H204.588L208.184 75.8485H235.38L239.006 87.9986ZM231.139 61.7082H212.529L221.789 31.2881L231.139 61.7082ZM214.942 59.9276H228.712L221.789 37.408L214.942 59.9276Z" fill="black"/>
<path d="M269.587 15.2476H290.864L318.629 55.9923V15.2476H340.101V88.8814H318.629L291.014 48.4808V88.8814H269.587V15.2476Z" fill="white"/>
<path d="M341.015 89.7792H318.165L291.913 51.3537V89.7792H268.703V14.3497H291.344L317.745 53.0895V14.3497H341.015V89.7792ZM319.109 87.9986H339.217V16.1752H319.528V58.9251L290.325 16.1304H270.486V87.9537H290.13V45.548L319.109 87.9986Z" fill="black"/>
<path d="M186.338 14.4544C177.014 16.106 167.586 17.106 158.123 17.4471V8.93302H164.012V0.882812H140.128V8.93302H146.017V17.4471C136.554 17.106 127.126 16.106 117.802 14.4544C117.802 14.4544 109.531 35.6722 129.025 46.0866V32.6197C129.025 32.6197 129.714 30.8092 141.581 30.9738V67.6037H142.271C142.271 67.6037 145.582 67.3493 145.777 69.5639C145.777 69.5639 146.002 71.7934 142.54 71.6288H141.581V89.2105H162.559V71.6138H162.004C162.004 71.6138 158.693 71.8682 158.498 69.6536C158.498 69.6536 158.273 67.4241 161.735 67.5887H162.559V30.9439C174.426 30.7793 175.115 32.5898 175.115 32.5898V46.0567C194.609 35.6722 186.338 14.4544 186.338 14.4544Z" fill="white"/>
<path d="M163.458 90.0785H140.682V70.7161H142.54C143.27 70.8295 144.016 70.6581 144.623 70.2373C144.792 70.0716 144.889 69.8456 144.893 69.6088C144.788 68.322 142.376 68.4717 142.361 68.4717H140.697V31.8268C132.816 31.8268 130.508 32.6647 129.924 32.979V47.5531L128.605 46.8498C108.647 36.196 116.888 14.3348 116.978 14.1104L117.248 13.4221L118.012 13.6016C126.99 15.2059 136.065 16.2057 145.177 16.5942V9.89072H139.289V0.0599365H164.911V9.89072H159.022V16.5942C168.135 16.2057 177.21 15.2059 186.188 13.6016L186.907 13.4669L187.177 14.1552C187.267 14.3797 195.493 36.2409 175.55 46.8947L174.231 47.598V33.0538C173.662 32.7246 171.384 31.8268 163.458 31.9016V68.5465H161.75C161.012 68.4285 160.259 68.606 159.652 69.0402C159.504 69.1994 159.419 69.4067 159.412 69.6238C159.517 70.9256 161.929 70.7909 161.959 70.776H163.458V90.1383V90.0785ZM142.48 88.2979H161.675V72.5117C160.266 72.5117 157.824 71.988 157.629 69.7136C157.608 69.3493 157.663 68.9847 157.789 68.6424C157.915 68.3001 158.111 67.9873 158.363 67.7235C158.811 67.3225 159.339 67.0217 159.913 66.841C160.487 66.6604 161.092 66.6042 161.69 66.6761V30.0611H162.574C170.635 29.9713 175.385 30.7345 175.984 32.2906V32.6049V44.5754C191.058 35.5077 186.832 19.0482 185.708 15.5019C176.589 17.0842 167.373 18.0491 158.123 18.3899H157.194V8.05028H163.083V1.79563H141.027V8.05028H146.916V18.3899H145.987C136.732 18.0451 127.51 17.0753 118.387 15.487C117.203 19.0931 112.843 35.403 128.126 44.5754V32.3056C128.71 30.8093 133.46 29.9714 141.536 30.0761H142.42V66.691C143.919 66.691 146.406 67.1399 146.616 69.4742C146.637 69.8384 146.582 70.203 146.456 70.5454C146.329 70.8877 146.134 71.2005 145.882 71.4643C145.418 71.8782 144.869 72.1863 144.274 72.3672C143.679 72.548 143.052 72.5974 142.435 72.5117V88.3128L142.48 88.2979Z" fill="black"/>
<path d="M340.371 97.2308H180.989V98.9217H340.371V97.2308Z" fill="black"/>
<path d="M340.371 120.618H180.989V122.309H340.371V120.618Z" fill="black"/>
<path d="M3.70099 30.6147H26.9408V86.0534L44.0972 86.0683V30.6147H67.3519L67.3369 18.0457H3.71597L3.70099 30.6147Z" fill="#ED1B2F"/>
<path d="M84.1637 86.0833L101.41 86.0683V18.0457H84.1787L84.1637 86.0833Z" fill="#ED1B2F"/>
<path d="M337.329 86.0383L337.314 18.0306L321.491 18.0156L321.476 65.1347L289.366 18.0605L272.524 18.0456L272.464 86.0533L288.242 86.0383L288.227 39.3382L320.143 86.0682" fill="#ED1B2F"/>
<path d="M211.615 18.0906L185.963 86.1282H203.06L206.701 73.9332H236.668L240.339 86.1282H258.125L232.563 18.0906H211.585H211.615ZM209.937 63.6535L220.351 29.4476H223.213L233.701 63.6535H209.937Z" fill="#ED1B2F"/>
<path d="M184.525 17.4022C174.926 19.0477 165.21 19.9283 155.471 20.0357V6.26958H161.465V3.54626H142.9V6.26958H148.774V20.0357C139.093 19.9287 129.435 19.0783 119.885 17.492C119.885 17.492 115.48 31.2881 126.373 41.1189V33.2482C126.373 33.2482 125.923 29.8366 130.329 28.9089C130.329 28.9089 133.49 27.7567 142.316 28.1607L144.548 28.3552V65.2844C145.615 65.3934 146.603 65.8936 147.322 66.6883C148.04 67.483 148.438 68.5156 148.438 69.5863C148.438 70.6571 148.04 71.6897 147.322 72.4844C146.603 73.2791 145.615 73.7793 144.548 73.8883V86.4723H159.877V73.8883C158.728 73.8883 157.627 73.4327 156.815 72.6217C156.002 71.8107 155.546 70.7108 155.546 69.5639C155.546 68.417 156.002 67.3171 156.815 66.5061C157.627 65.6951 158.728 65.2395 159.877 65.2395V28.1009H162.169C170.965 27.6969 174.156 28.849 174.156 28.849C178.561 29.7768 178.112 33.1884 178.112 33.1884V41.059C188.93 31.1833 184.525 17.4022 184.525 17.4022Z" fill="#ED1B2F"/>
</g>
<defs>
<clipPath id="clip0">
<rect width="341" height="124" fill="white"/>
</clipPath>
</defs>
</svg>
