<svg width="119" height="44" viewBox="0 0 119 44" fill="none" xmlns="http://www.w3.org/2000/svg">
<path d="M64.6057 35.6056H66.6501C66.895 35.6005 67.1399 35.6162 67.3822 35.6526C67.5322 35.68 67.677 35.7311 67.8109 35.804C68.0517 35.9292 68.2473 36.1263 68.3704 36.368C68.5028 36.6447 68.5673 36.949 68.5586 37.2556C68.5629 37.5181 68.5094 37.7784 68.4018 38.018C68.2997 38.2395 68.1432 38.4317 67.9469 38.5767C67.8041 38.6789 67.6423 38.7516 67.4711 38.7907C67.2234 38.8412 66.9708 38.8639 66.7181 38.8586H65.4998V40.9472H64.6057V35.6056ZM65.4998 36.3784V38.0702H66.6554C66.9285 38.0945 67.2016 38.0244 67.4292 37.8718C67.5124 37.7881 67.5761 37.6872 67.6158 37.5762C67.6556 37.4652 67.6704 37.3469 67.6593 37.2295C67.6698 37.1114 67.6547 36.9925 67.615 36.8807C67.5753 36.769 67.5119 36.6671 67.4292 36.582C67.2208 36.4262 66.9616 36.3535 66.7024 36.3784H65.4946H65.4998Z" fill="black"/>
<path d="M71.7689 35.4647C72.1188 35.4473 72.4684 35.506 72.7933 35.6367C73.1183 35.7675 73.411 35.9671 73.6512 36.2218C74.0976 36.819 74.3388 37.5443 74.3388 38.2895C74.3388 39.0347 74.0976 39.76 73.6512 40.3572C73.1435 40.8414 72.4684 41.1116 71.7663 41.1116C71.0642 41.1116 70.3891 40.8414 69.8814 40.3572C69.4345 39.7592 69.1931 39.033 69.1931 38.2869C69.1931 37.5407 69.4345 36.8146 69.8814 36.2166C70.1228 35.9624 70.4166 35.7635 70.7425 35.6337C71.0684 35.5039 71.4186 35.4462 71.7689 35.4647ZM71.7689 36.2374C71.5384 36.2243 71.3081 36.2646 71.0958 36.3551C70.8835 36.4457 70.6951 36.5842 70.5454 36.7596C70.2583 37.2097 70.1058 37.7323 70.1058 38.266C70.1058 38.7997 70.2583 39.3223 70.5454 39.7724C70.6998 39.9436 70.8885 40.0804 71.0993 40.1741C71.3101 40.2677 71.5382 40.3161 71.7689 40.3161C71.9996 40.3161 72.2277 40.2677 72.4385 40.1741C72.6493 40.0804 72.838 39.9436 72.9924 39.7724C73.2789 39.3221 73.4311 38.7995 73.4311 38.266C73.4311 37.7325 73.2789 37.2099 72.9924 36.7596C72.8427 36.5845 72.6542 36.4466 72.4418 36.3569C72.2294 36.2672 71.999 36.228 71.7689 36.2427V36.2374Z" fill="black"/>
<path d="M78.9271 37.1668H78.08C78.0772 37.0298 78.045 36.8951 77.9854 36.7716C77.9259 36.6482 77.8405 36.539 77.7349 36.4515C77.4939 36.2681 77.1958 36.1757 76.8931 36.1904C76.6385 36.1786 76.387 36.2501 76.1768 36.394C76.094 36.4483 76.0256 36.5217 75.9773 36.608C75.9289 36.6943 75.9021 36.7909 75.899 36.8898C75.8959 36.9886 75.9167 37.0867 75.9596 37.1758C76.0025 37.265 76.0662 37.3424 76.1454 37.4018C76.4665 37.5973 76.8211 37.7319 77.1912 37.7986C77.757 37.8909 78.2938 38.1125 78.7598 38.4461C78.8845 38.5749 78.9811 38.7282 79.0432 38.8964C79.1053 39.0645 79.1316 39.2437 79.1206 39.4225C79.1279 39.6552 79.0807 39.8864 78.9826 40.0977C78.8846 40.3089 78.7384 40.4943 78.5559 40.6391C78.1212 40.9636 77.5867 41.1261 77.0448 41.0986C76.4805 41.1365 75.9221 40.9654 75.4761 40.6182C75.2848 40.4425 75.1328 40.2284 75.0301 39.99C74.9274 39.7515 74.8763 39.4941 74.8801 39.2345H75.6905C75.6942 39.3896 75.7311 39.542 75.7988 39.6816C75.8664 39.8212 75.9632 39.9448 76.0827 40.0439C76.3602 40.2483 76.7004 40.3498 77.0448 40.3311C77.3131 40.3432 77.578 40.2661 77.7977 40.1117C77.8841 40.0537 77.9556 39.9762 78.0064 39.8855C78.0573 39.7948 78.0861 39.6935 78.0905 39.5896C78.0851 39.4887 78.0564 39.3905 78.0068 39.3024C77.9542 39.1985 77.8834 39.1047 77.7977 39.0257C77.514 38.8366 77.1931 38.7102 76.8565 38.655L76.6212 38.5975C76.1544 38.5056 75.7178 38.2993 75.3507 37.997C75.2237 37.865 75.1253 37.7084 75.0614 37.5369C74.9975 37.3653 74.9696 37.1825 74.9794 36.9997C74.9728 36.7893 75.0168 36.5804 75.1078 36.3905C75.1988 36.2006 75.3341 36.0353 75.5023 35.9084C75.9246 35.6111 76.4346 35.464 76.9506 35.4907C77.4588 35.4639 77.9586 35.6278 78.3519 35.9502C78.5323 36.0976 78.6775 36.2832 78.777 36.4937C78.8765 36.7041 78.9277 36.9341 78.9271 37.1668Z" fill="black"/>
<path d="M79.4763 35.6056H83.6592V36.3888H82.0122V40.9629H81.1233V36.3888H79.4658V35.6056H79.4763Z" fill="black"/>
<path d="M86.3838 35.6056H88.4753C88.8017 35.5811 89.1294 35.6282 89.4357 35.7437C89.7419 35.8592 90.0191 36.0402 90.2478 36.274C90.6825 36.8443 90.8927 37.5539 90.8386 38.2686C90.8871 38.9935 90.655 39.7094 90.1903 40.2684C89.9467 40.5107 89.6543 40.6984 89.3324 40.8191C89.0106 40.9397 88.6667 40.9905 88.3236 40.9681H86.3995V35.6056H86.3838ZM87.2622 36.3679V40.1744H88.3602C88.5799 40.1928 88.8008 40.1594 89.0052 40.0769C89.2095 39.9943 89.3916 39.865 89.5367 39.6993C89.8217 39.2615 89.9541 38.7421 89.9132 38.2216C89.9481 37.7311 89.8154 37.2433 89.5367 36.8379C89.4021 36.6776 89.2316 36.5511 89.0391 36.4685C88.8466 36.386 88.6373 36.3498 88.4282 36.3627H87.2727L87.2622 36.3679Z" fill="black"/>
<path d="M91.5752 35.6056H94.1895C94.3923 35.5939 94.5954 35.623 94.7867 35.6911C94.978 35.7593 95.1537 35.8652 95.3033 36.0024C95.5232 36.2566 95.6604 36.5715 95.6968 36.9054C95.7333 37.2393 95.6671 37.5763 95.5072 37.8718C95.3751 38.0864 95.1743 38.2502 94.9373 38.3365C95.1289 38.3886 95.2957 38.507 95.4078 38.6707C95.5227 38.9007 95.5801 39.1551 95.5752 39.4121L95.6222 40.1797C95.6078 40.292 95.6207 40.4062 95.6598 40.5126C95.6989 40.6189 95.7632 40.7143 95.847 40.7906V40.9472H94.8275C94.7857 40.8685 94.7557 40.7841 94.7386 40.6966C94.7118 40.5465 94.6961 40.3947 94.6915 40.2423L94.6601 39.6001C94.673 39.3522 94.597 39.1078 94.4458 38.9108C94.2612 38.7779 94.0344 38.7166 93.8078 38.7385H92.4588V40.942H91.5752V35.6056ZM92.4536 36.3575V38.0075H93.7347C94.0176 38.0316 94.3006 37.9618 94.5399 37.8091C94.6269 37.7288 94.6944 37.6296 94.737 37.5192C94.7796 37.4087 94.7962 37.29 94.7856 37.1721C94.7956 37.057 94.7792 36.9413 94.7375 36.8336C94.6958 36.7259 94.63 36.6291 94.5451 36.5507C94.3104 36.4014 94.0329 36.3334 93.7556 36.3575H92.4536Z" fill="black"/>
<path d="M96.8667 35.6056H97.7608V40.9629H96.8667V35.6056Z" fill="black"/>
<path d="M98.5032 35.6056H99.4653L100.814 39.882L102.168 35.6056H103.12L101.264 40.9629H100.37L98.5032 35.6056Z" fill="black"/>
<path d="M103.675 35.6056H107.523V36.3888H104.553V37.7882H107.293V38.5349H104.553V40.1535H107.622V40.9577H103.68V35.6056H103.675Z" fill="black"/>
<path d="M108.49 35.6056H111.105C111.308 35.5939 111.511 35.623 111.702 35.6911C111.893 35.7593 112.069 35.8652 112.219 36.0024C112.438 36.2566 112.576 36.5715 112.612 36.9054C112.649 37.2393 112.582 37.5763 112.422 37.8718C112.29 38.0861 112.089 38.2498 111.853 38.3365C112.044 38.3881 112.211 38.5067 112.323 38.6707C112.439 38.9003 112.496 39.155 112.49 39.4121L112.537 40.1797C112.522 40.2916 112.534 40.4056 112.573 40.5119C112.611 40.6182 112.674 40.7138 112.757 40.7906V40.9472H111.758C111.717 40.8685 111.687 40.7841 111.67 40.6966C111.642 40.5466 111.626 40.3947 111.622 40.2423L111.591 39.6001C111.607 39.3518 111.53 39.1065 111.377 38.9108C111.192 38.7779 110.965 38.7166 110.739 38.7385H109.39V40.942H108.506V35.6056H108.49ZM109.369 36.3575V38.0075H110.65C110.933 38.0312 111.216 37.9615 111.455 37.8091C111.542 37.7288 111.61 37.6296 111.652 37.5192C111.695 37.4087 111.712 37.29 111.701 37.1721C111.711 37.057 111.694 36.9413 111.653 36.8336C111.611 36.7259 111.545 36.6291 111.46 36.5507C111.226 36.4014 110.948 36.3334 110.671 36.3575H109.369Z" fill="black"/>
<path d="M117.436 37.1669H116.589C116.587 37.0299 116.554 36.8952 116.495 36.7717C116.435 36.6483 116.35 36.5391 116.244 36.4515C116.003 36.2682 115.705 36.1758 115.403 36.1905C115.148 36.1787 114.896 36.2502 114.686 36.3941C114.603 36.4484 114.535 36.5218 114.487 36.6081C114.438 36.6944 114.411 36.791 114.408 36.8898C114.405 36.9887 114.426 37.0868 114.469 37.1759C114.512 37.265 114.576 37.3425 114.655 37.4019C114.976 37.5972 115.33 37.7317 115.701 37.7987C116.266 37.8912 116.803 38.1128 117.269 38.4462C117.394 38.5751 117.49 38.7285 117.552 38.8966C117.614 39.0647 117.641 39.2438 117.63 39.4226C117.637 39.6553 117.59 39.8865 117.492 40.0978C117.394 40.309 117.248 40.4944 117.065 40.6392C116.631 40.9637 116.096 41.1262 115.554 41.0987C114.99 41.137 114.431 40.966 113.986 40.6183C113.785 40.4479 113.624 40.2368 113.512 39.9991C113.4 39.7613 113.341 39.5025 113.337 39.2398H114.205C114.209 39.3949 114.246 39.5473 114.313 39.6869C114.381 39.8265 114.478 39.9501 114.597 40.0492C114.875 40.2536 115.215 40.3551 115.559 40.3364C115.828 40.3485 116.093 40.2714 116.312 40.1171C116.448 40.0318 116.546 39.8971 116.585 39.7414C116.624 39.5856 116.601 39.4209 116.521 39.2816C116.469 39.1777 116.398 39.084 116.312 39.0049C116.029 38.8159 115.708 38.6895 115.371 38.6341L115.136 38.5767C114.669 38.485 114.232 38.2786 113.865 37.9762C113.738 37.8444 113.639 37.6878 113.576 37.5162C113.512 37.3446 113.484 37.1617 113.494 36.9789C113.487 36.7685 113.531 36.5596 113.622 36.3697C113.713 36.1798 113.849 36.0145 114.017 35.8876C114.439 35.5902 114.949 35.4431 115.465 35.4699C115.973 35.4431 116.473 35.607 116.867 35.9294C117.049 36.0795 117.195 36.2688 117.293 36.483C117.392 36.6973 117.441 36.9311 117.436 37.1669Z" fill="black"/>
<path d="M54.5618 31.2039H51.5762V43.25H54.5618V31.2039Z" fill="black"/>
<path d="M0.313721 5.29974H24.4808V11.6439H16.3711V30.9949H8.42344V11.6439H0.313721V5.29974Z" fill="white"/>
<path d="M16.6848 31.3082H8.10971V11.9573H0V4.98651H24.7945V11.9573H16.6848V31.3082ZM8.73193 30.6869H16.0521V11.3307H24.1618V5.58698H0.632668V11.3307H8.74238V30.6817L8.73193 30.6869Z" fill="black"/>
<path d="M28.3972 5.29974H36.3657V30.9949H28.3972V5.29974Z" fill="white"/>
<path d="M36.6792 31.3082H28.1094V4.98651H36.7054V31.3082H36.6792ZM28.7107 30.6869H36.0309V5.62354H28.7107V30.6869Z" fill="black"/>
<path d="M81.8817 26.755H72.857L71.6021 30.9949H63.4819L73.155 5.29974H81.8294L91.4973 30.9949H83.1732L81.8817 26.755ZM80.2347 21.1993L77.3955 11.9624L74.5877 21.1993H80.2399H80.2347Z" fill="white"/>
<path d="M91.9467 31.3082H82.9376L81.6514 27.0684H73.0763L71.8214 31.3082H63.032L72.9404 4.98651H82.0435L91.9467 31.3082ZM83.403 30.6869H91.0473L81.6357 5.62354H73.3691L63.9575 30.6869H71.3927L72.6475 26.447H82.1376L83.403 30.6869ZM80.6579 21.5126H74.1639L77.3952 10.8973L80.6579 21.5126ZM75.0057 20.8913H79.8109L77.3952 13.0329L75.0057 20.8913Z" fill="black"/>
<path d="M94.075 5.29974H101.5L111.188 19.518V5.29974H118.681V30.9949H111.188L101.552 16.8968V30.9949H94.075V5.29974Z" fill="white"/>
<path d="M119 31.3082H111.026L101.866 17.8994V31.3082H93.7664V4.98651H101.667L110.88 18.5051V4.98651H119V31.3082ZM111.356 30.6869H118.373V5.62354H111.502V20.5415L101.311 5.60787H94.3886V30.6712H101.243V15.8734L111.356 30.6869Z" fill="black"/>
<path d="M65.024 5.02316C61.7705 5.5995 58.4806 5.94845 55.1784 6.06747V3.09642H57.2333V0.287231H48.8987V3.09642H50.9536V6.06747C47.6514 5.94845 44.3615 5.5995 41.1079 5.02316C41.1079 5.02316 38.2217 12.4273 45.0242 16.0615V11.3621C45.0242 11.3621 45.2648 10.7303 49.4059 10.7877V23.57H49.6464C49.6464 23.57 50.802 23.4813 50.8699 24.254C50.8699 24.254 50.9484 25.0321 49.7405 24.9746H49.4059V31.1099H56.7261V24.9694H56.5326C56.5326 24.9694 55.3771 25.0582 55.3091 24.2854C55.3091 24.2854 55.2307 23.5074 56.4385 23.5648H56.7261V10.7773C60.8672 10.7198 61.1077 11.3517 61.1077 11.3517V16.051C67.9102 12.4273 65.024 5.02316 65.024 5.02316Z" fill="white"/>
<path d="M57.04 31.4127H49.0924V24.6561H49.7408C49.9955 24.6956 50.2558 24.6358 50.4676 24.489C50.5267 24.4311 50.5605 24.3523 50.5617 24.2697C50.5251 23.8206 49.6833 23.8728 49.678 23.8728H49.0977V11.0853C46.3474 11.0853 45.5421 11.3777 45.3382 11.4874V16.5731L44.8781 16.3277C37.9135 12.61 40.7892 4.98133 40.8206 4.90301L40.9147 4.66282L41.1814 4.72548C44.3143 5.2853 47.4813 5.63418 50.661 5.76978V3.43053H48.6062V0H57.5472V3.43053H55.4923V5.76978C58.6721 5.63418 61.8391 5.2853 64.972 4.72548L65.223 4.67848L65.3171 4.91867C65.3484 4.99699 68.219 12.6256 61.2596 16.3434L60.7995 16.5888V11.5135C60.6008 11.3986 59.806 11.0853 57.04 11.1114V23.8989H56.444C56.1868 23.8578 55.9237 23.9197 55.712 24.0712C55.6603 24.1268 55.6306 24.1991 55.6283 24.2749C55.6649 24.7292 56.5067 24.6822 56.5172 24.6769H57.04V31.4336V31.4127ZM49.7199 30.7914H56.4178V25.2826C55.9263 25.2826 55.0741 25.0999 55.0061 24.3062C54.9989 24.1791 55.0179 24.0519 55.062 23.9324C55.106 23.8129 55.1742 23.7038 55.2623 23.6118C55.4186 23.4718 55.603 23.3668 55.8031 23.3038C56.0033 23.2408 56.2147 23.2211 56.4231 23.2462V10.4692H56.7315C59.5446 10.4378 61.2021 10.7041 61.4112 11.2472V11.3568V15.534C66.6713 12.3698 65.1968 6.62611 64.8047 5.38861C61.6224 5.94075 58.4064 6.27745 55.1786 6.39637H54.8544V2.78829H56.9093V0.605683H49.2127V2.78829H51.2676V6.39637H50.9434C47.7138 6.27607 44.496 5.93764 41.3121 5.38339C40.899 6.64178 39.3775 12.3333 44.7108 15.534V11.2524C44.9147 10.7302 46.5722 10.4378 49.3905 10.4744H49.699V23.2515C50.2218 23.2515 51.0898 23.4081 51.163 24.2227C51.1702 24.3498 51.1512 24.477 51.1071 24.5965C51.063 24.7159 50.9948 24.8251 50.9068 24.9171C50.7449 25.0616 50.5535 25.1691 50.3458 25.2322C50.1381 25.2953 49.9192 25.3125 49.7042 25.2826V30.7966L49.7199 30.7914Z" fill="black"/>
<path d="M118.775 33.9086H63.1577V34.4986H118.775V33.9086Z" fill="black"/>
<path d="M118.775 42.0698H63.1577V42.6598H118.775V42.0698Z" fill="black"/>
<path d="M1.29175 10.6624H9.40146V30.0081L15.3883 30.0134V10.6624H23.5033L23.498 6.27631H1.29698L1.29175 10.6624Z" fill="#ED1B2F"/>
<path d="M29.3696 30.0186L35.3879 30.0134V6.27631H29.3749L29.3696 30.0186Z" fill="#ED1B2F"/>
<path d="M117.714 30.0029L117.709 6.27109L112.187 6.26587L112.182 22.7085L100.977 6.28153L95.0998 6.27631L95.0789 30.0082L100.585 30.0029L100.579 13.7065L111.717 30.0134" fill="#ED1B2F"/>
<path d="M73.8444 6.29199L64.8928 30.0343H70.8588L72.1293 25.7787H82.5867L83.8678 30.0343H90.0742L81.1541 6.29199H73.8339H73.8444ZM73.2587 22.1916L76.8927 10.2551H77.8914L81.5515 22.1916H73.2587Z" fill="#ED1B2F"/>
<path d="M64.3918 6.05181C61.0421 6.62601 57.6519 6.9333 54.2534 6.97079V2.167H56.3448V1.21667H49.8665V2.167H51.9161V6.97079C48.538 6.93346 45.1677 6.63671 41.8352 6.08314C41.8352 6.08314 40.2979 10.8974 44.0992 14.3279V11.5814C44.0992 11.5814 43.9424 10.3909 45.4796 10.0672C45.4796 10.0672 46.5829 9.66511 49.6626 9.80609L50.4416 9.87396V22.7607C50.8138 22.7987 51.1587 22.9733 51.4094 23.2506C51.6602 23.5279 51.799 23.8883 51.799 24.2619C51.799 24.6355 51.6602 24.9959 51.4094 25.2732C51.1587 25.5505 50.8138 25.7251 50.4416 25.7631V30.1544H55.7906V25.7631C55.3898 25.7631 55.0055 25.6041 54.7221 25.3211C54.4387 25.0381 54.2795 24.6543 54.2795 24.2541C54.2795 23.8538 54.4387 23.47 54.7221 23.187C55.0055 22.904 55.3898 22.745 55.7906 22.745V9.7852H56.5906C59.6598 9.64422 60.7735 10.0463 60.7735 10.0463C62.3108 10.37 62.1539 11.5605 62.1539 11.5605V14.307C65.929 10.8608 64.3918 6.05181 64.3918 6.05181Z" fill="#ED1B2F"/>
</svg>
