<svg width="27" height="27" viewBox="0 0 27 27" fill="none" xmlns="http://www.w3.org/2000/svg">
<path fill-rule="evenodd" clip-rule="evenodd" d="M2.38904 0C1.28447 0 0.389038 0.895429 0.389038 2V24.389C0.389038 25.4936 1.28447 26.389 2.38904 26.389H24.7781C25.8826 26.389 26.7781 25.4936 26.7781 24.389V2C26.7781 0.895431 25.8826 0 24.7781 0H2.38904ZM11.1373 20.141C16.9429 19.8771 20.7693 15.6549 20.9012 9.58542C21.5609 9.05764 22.2207 8.52986 22.3527 7.87013C21.8249 8.13402 21.1652 8.26597 20.5054 8.39791L20.5054 8.39791C21.1651 7.87013 21.6929 7.34235 21.9568 6.41874C21.7878 6.48636 21.6187 6.56264 21.4452 6.64093C20.9417 6.86816 20.4007 7.11227 19.7138 7.21041C17.7346 4.70345 12.7206 6.68263 13.6442 10.3771C10.2137 10.1132 8.10253 8.52986 6.38724 6.68263C5.46363 8.26597 6.2553 10.7729 7.4428 11.4327C6.91502 11.4327 6.38724 11.3007 5.99141 11.0368C6.12335 13.1479 7.17891 14.0716 8.76225 14.5993C8.63886 14.5993 8.50264 14.6122 8.35759 14.6258C8.03736 14.656 7.67411 14.6901 7.31086 14.5993C7.83864 16.0507 8.8942 16.9743 10.6095 17.1063C9.42198 18.1619 7.17891 18.8216 5.46363 18.5577C7.04697 19.4813 8.76225 20.273 11.1373 20.141Z" fill="#323232" fill-opacity="0.4"/>
</svg>
