<svg width="26" height="26" viewBox="0 0 26 26" fill="none" xmlns="http://www.w3.org/2000/svg">
<path fill-rule="evenodd" clip-rule="evenodd" d="M0 2C0 0.895431 0.89543 0 2 0H24C25.1046 0 26 0.89543 26 2V24C26 25.1046 25.1046 26 24 26H2C0.895431 26 0 25.1046 0 24V2ZM19.7392 19.0241C20.6817 18.9188 21.4647 18.2121 21.6853 17.2549C21.9991 15.8922 22 14.4035 22 12.9999V12.9631C22 11.5703 22 10.0964 21.6888 8.74566C21.4683 7.7876 20.6854 7.08177 19.7427 6.97657C17.5109 6.72714 15.2518 6.72623 13.0028 6.72714C10.7536 6.72617 8.49371 6.72714 6.26171 6.97657C5.32017 7.08177 4.53697 7.7876 4.31749 8.74566C4.00371 10.1083 4 11.5964 4 12.9999C4 14.4035 4 15.8922 4.31406 17.2549C4.53354 18.2121 5.31646 18.9189 6.2592 19.0241C8.49097 19.2728 10.7499 19.2745 12.9991 19.2728C15.2492 19.2745 17.5081 19.2728 19.7392 19.0241ZM12.8783 14.6528C12.1458 15.0327 11.4129 15.4128 10.6774 15.7942V9.84171C11.7007 10.3757 12.7206 10.9076 13.7426 11.4407C14.6254 11.9012 15.5099 12.3625 16.3996 12.8267C15.2215 13.4374 14.0505 14.0448 12.8783 14.6528Z" fill="white"/>
</svg>
